<svg aria-hidden="true" style="position: absolute; width: 0; height: 0; overflow: hidden;" version="1.1" xmlns="http://www.w3.org/2000/svg" xmlns:xlink="http://www.w3.org/1999/xlink">
<defs>
<symbol id="icon-folder" viewBox="0 0 24 24">
<path d="M20.016 18v-9.984h-16.031v9.984h16.031zM20.016 6q0.797 0 1.383 0.609t0.586 1.406v9.984q0 0.797-0.586 1.406t-1.383 0.609h-16.031q-0.797 0-1.383-0.609t-0.586-1.406v-12q0-0.797 0.586-1.406t1.383-0.609h6l2.016 2.016h8.016z"></path>
</symbol>
<symbol id="icon-close" viewBox="0 0 32 32">
<path fill="#fff" style="fill: var(--color1, #fff)" d="M15.998 13.17l12.586-12.58c0.781-0.78 2.047-0.78 2.828 0s0.781 2.040 0 2.82l-12.586 12.59 12.586 12.59c0.781 0.78 0.781 2.040 0 2.82-0.781 0.79-2.047 0.79-2.828 0l-12.586-12.58-12.586 12.58c-0.781 0.79-2.047 0.79-2.828 0-0.781-0.78-0.781-2.040 0-2.82l12.586-12.59-12.586-12.59c-0.781-0.78-0.781-2.040 0-2.82s2.047-0.78 2.828 0l12.586 12.58z"></path>
</symbol>
<symbol id="icon-down" viewBox="0 0 19 32">
<path fill="#fff" style="fill: var(--color1, #fff)" d="M7.671 25.931v-24.249c0-0.924 0.852-1.68 1.92-1.68 1.061 0 1.92 0.747 1.92 1.68v24.249l4.403-4.071c0.75-0.702 1.965-0.702 2.715 0 0.75 0.693 0.75 1.813 0 2.507l-7.68 7.111c-0.75 0.693-1.965 0.693-2.715 0l-7.68-7.111c-0.75-0.693-0.75-1.813 0-2.507 0.75-0.702 1.965-0.702 2.715 0l4.403 4.071z"></path>
</symbol>
<symbol id="icon-left" viewBox="0 0 53 32">
<path fill="#fff" style="fill: var(--color1, #fff)" d="M10.122 12.8h40.415c1.541 0 2.8 1.421 2.8 3.2 0 1.768-1.244 3.2-2.8 3.2h-40.415l6.785 7.338c1.17 1.25 1.17 3.275 0 4.525-1.156 1.25-3.022 1.25-4.178 0l-11.852-12.8c-1.156-1.25-1.156-3.275 0-4.525l11.852-12.8c1.156-1.25 3.022-1.25 4.178 0 1.17 1.25 1.17 3.275 0 4.525l-6.785 7.338z"></path>
</symbol>
<symbol id="icon-right" viewBox="0 0 53 32">
<path fill="#fff" style="fill: var(--color1, #fff)" d="M43.22 19.2h-40.415c-1.541 0-2.8-1.421-2.8-3.2 0-1.768 1.244-3.2 2.8-3.2h40.415l-6.785-7.338c-1.17-1.25-1.17-3.275 0-4.525 1.156-1.25 3.022-1.25 4.178 0l11.852 12.8c1.156 1.25 1.156 3.275 0 4.525l-11.852 12.8c-1.156 1.25-3.022 1.25-4.178 0-1.17-1.25-1.17-3.275 0-4.525l6.785-7.338z"></path>
</symbol>
<symbol id="icon-up" viewBox="0 0 19 32">
<path fill="#fff" style="fill: var(--color1, #fff)" d="M11.518 6.069v24.249c0 0.924-0.852 1.68-1.92 1.68-1.061 0-1.92-0.747-1.92-1.68v-24.249l-4.403 4.071c-0.75 0.702-1.965 0.702-2.715 0-0.75-0.693-0.75-1.813 0-2.507l7.68-7.111c0.75-0.693 1.965-0.693 2.715 0l7.68 7.111c0.75 0.693 0.75 1.813 0 2.507-0.75 0.702-1.965 0.702-2.715 0l-4.403-4.071z"></path>
</symbol>
<symbol id="icon-banner" viewBox="0 0 32 32">
<path d="M28.441 16h-24.889v12.444h24.889v-12.444zM1.774-0h28.444c0.976 0 1.778 0.802 1.778 1.778v28.444c0 0.976-0.802 1.778-1.778 1.778h-28.444c-0.976 0-1.778-0.802-1.778-1.778v-28.444c0-0.976 0.802-1.778 1.778-1.778z"></path>
</symbol>
<symbol id="icon-linux" viewBox="0 0 32 32">
<path d="M31.997 16c0 8.835-7.163 16-16 16s-16-7.165-16-16c0-8.837 7.163-16 16-16s16 7.163 16 16zM5.117 13.862c-1.171 0-2.136 0.965-2.136 2.136s0.965 2.136 2.136 2.136c1.171 0 2.136-0.965 2.136-2.136s-0.965-2.136-2.136-2.136zM20.37 23.573c-0.678 0.376-1.102 1.093-1.102 1.869 0 1.17 0.963 2.134 2.134 2.134 0.389 0 0.77-0.107 1.102-0.307 0.64-0.386 1.032-1.080 1.032-1.827 0-1.171-0.963-2.134-2.134-2.134-0.362 0-0.717 0.091-1.032 0.266zM9.757 16c0-2.112 1.050-3.976 2.654-5.104l-1.562-2.618c-1.898 1.266-3.264 3.187-3.838 5.394 0.701 0.57 1.107 1.426 1.107 2.328s-0.406 1.758-1.107 2.328c0.574 2.206 1.941 4.128 3.837 5.394l1.563-2.618c-1.664-1.165-2.656-3.074-2.654-5.104zM15.997 9.76c3.214 0 5.93 2.485 6.214 5.686l3.045-0.045c-0.144-2.277-1.126-4.422-2.757-6.019-0.341 0.13-0.701 0.195-1.066 0.195-1.464 0-2.725-1.075-2.957-2.522-2.198-0.605-4.546-0.382-6.592 0.624l1.483 2.661c0.824-0.384 1.72-0.581 2.629-0.581zM15.997 22.24c-0.939 0-1.829-0.208-2.629-0.581l-1.483 2.659c2.045 1.014 4.394 1.237 6.592 0.624 0.232-1.446 1.493-2.522 2.957-2.522 0.365 0 0.725 0.066 1.066 0.195 1.629-1.597 2.611-3.742 2.757-6.019l-3.045-0.043c-0.283 3.202-3 5.688-6.214 5.686zM20.368 8.427c0.331 0.197 0.709 0.301 1.093 0.301 1.173 0 2.136-0.965 2.136-2.136 0-0.773-0.419-1.486-1.093-1.864-0.318-0.178-0.678-0.272-1.043-0.272-1.171 0-2.136 0.965-2.136 2.136 0 0.752 0.397 1.451 1.043 1.835z"></path>
</symbol>
<symbol id="icon-macos" viewBox="0 0 26 32">
<path d="M12.761 10.010c-1.219 0-3.105-1.386-5.092-1.336-2.621 0.033-5.025 1.519-6.378 3.873-2.721 4.725-0.701 11.704 1.953 15.544 1.302 1.87 2.838 3.974 4.875 3.907 1.953-0.083 2.688-1.269 5.059-1.269 2.354 0 3.022 1.269 5.092 1.219 2.104-0.033 3.439-1.903 4.725-3.79 1.486-2.17 2.104-4.274 2.137-4.391-0.050-0.017-4.090-1.569-4.14-6.244-0.033-3.907 3.189-5.777 3.339-5.86-1.837-2.688-4.658-2.989-5.643-3.055-2.571-0.2-4.725 1.402-5.927 1.402zM17.102 6.070c1.085-1.302 1.803-3.122 1.603-4.925-1.553 0.067-3.423 1.035-4.541 2.337-1.002 1.152-1.87 3.005-1.636 4.775 1.72 0.134 3.489-0.885 4.575-2.187z"></path>
</symbol>
<symbol id="icon-resolution" viewBox="0 0 32 32">
<path d="M-0.003-0h3.556v3.556h-3.556v-3.556zM7.108-0h3.556v3.556h-3.556v-3.556zM14.219-0h3.556v3.556h-3.556v-3.556zM21.331-0h3.556v3.556h-3.556v-3.556zM28.442-0h3.556v3.556h-3.556v-3.556zM28.442 7.111h3.556v3.556h-3.556v-3.556zM-0.003 28.444h3.556v3.556h-3.556v-3.556zM-0.003 21.333h3.556v3.556h-3.556v-3.556zM-0.003 14.222h3.556v3.556h-3.556v-3.556zM-0.003 7.111h3.556v3.556h-3.556v-3.556zM13.627 14.222l1.842-2.764c0.329-0.494 0.885-0.791 1.479-0.791h5.209c0.594 0 1.15 0.297 1.479 0.791l1.842 2.764h4.741c0.976 0 1.778 0.802 1.778 1.778v14.222c0 0.976-0.802 1.778-1.778 1.778h-21.333c-0.976 0-1.778-0.802-1.778-1.778v-14.222c0-0.976 0.802-1.778 1.778-1.778h4.741zM19.553 26.667c1.95 0 3.556-1.605 3.556-3.556s-1.605-3.556-3.556-3.556c-1.95 0-3.556 1.605-3.556 3.556s1.605 3.556 3.556 3.556z"></path>
</symbol>
<symbol id="icon-win10" viewBox="0 0 32 32">
<path d="M15.109-0.002v15.111h-15.111v-15.111h15.111zM15.109 31.998h-15.111v-15.111h15.111v15.111zM16.887-0.002h15.111v15.111h-15.111v-15.111zM31.998 16.887v15.111h-15.111v-15.111h15.111z"></path>
</symbol>
<symbol id="icon-android" viewBox="0 0 29 32">
<path d="M5.411 3.15c2.549-2.043 5.722-3.154 8.989-3.149 3.4 0 6.525 1.178 8.989 3.149l2.325-2.325 2.262 2.262-2.325 2.325c2.043 2.549 3.154 5.722 3.149 8.989v1.6h-28.8v-1.6c0-3.4 1.178-6.525 3.149-8.989l-2.325-2.323 2.262-2.262 2.325 2.323zM0 19.201h28.8v11.2c0 0.878-0.722 1.6-1.6 1.6h-25.6c-0.878 0-1.6-0.722-1.6-1.6v-11.2zM9.6 11.201c0.878 0 1.6-0.722 1.6-1.6s-0.722-1.6-1.6-1.6c-0.878 0-1.6 0.722-1.6 1.6s0.722 1.6 1.6 1.6zM19.2 11.201c0.878 0 1.6-0.722 1.6-1.6s-0.722-1.6-1.6-1.6c-0.878 0-1.6 0.722-1.6 1.6s0.722 1.6 1.6 1.6z"></path>
</symbol>
<symbol id="icon-camera" viewBox="0 0 34 32">
<path fill="#fff" style="fill: var(--color1, #fff)" d="M24.798 17.48c-0.245 0.568-0.789 0.958-1.421 0.958-0.861 0-1.558-0.723-1.558-1.624 0-0.658 0.376-1.226 0.918-1.478-0.291-0.097-0.598-0.146-0.918-0.146-1.721 0-3.117 1.454-3.117 3.248s1.396 3.248 3.117 3.248c1.721 0 3.117-1.454 3.117-3.248 0-0.333-0.048-0.65-0.137-0.958zM14.494 5.446l1.291-3.362c0.319-0.836 1.278-1.51 2.142-1.51h7.783c0.863 0 1.823 0.682 2.142 1.51l1.291 3.362h2.024c1.722 0 3.118 1.454 3.118 3.248v19.489c0 1.795-1.397 3.248-3.118 3.248h-28.049c-1.722 0-3.118-1.454-3.118-3.248v-19.489c0-1.795 1.397-3.248 3.118-3.248h11.375zM16.604 8.694h-13.485c0 0-0.002 19.489-0.002 19.489s28.050 0 28.050 0c0 0 0.002-19.489 0.002-19.489s-2.026 0-2.026 0h-2.11l-0.784-2.038-1.153-2.834h-6.625l-1.083 2.834-0.784 2.038zM6.234 13.558c0-0.893 0.692-1.616 1.558-1.616 0.861 0 1.558 0.723 1.558 1.616v9.761c0 0.893-0.692 1.616-1.558 1.616-0.861 0-1.558-0.723-1.558-1.616v-9.761zM15.585 18.438c0-3.589 2.791-6.496 6.234-6.496s6.234 2.907 6.234 6.496c0 3.589-2.791 6.496-6.234 6.496s-6.234-2.907-6.234-6.496z"></path>
</symbol>
<symbol id="icon-chrome" viewBox="0 0 32 32">
<path d="M12.523 31.621c-7.163-1.587-12.523-7.978-12.523-15.621 0-2.915 0.779-5.648 2.142-8.003l6.853 11.87c1.571 2.848 4.731 4.467 7.962 4.077l-4.434 7.677zM16 32l6.859-11.88c0.749-1.243 1.142-2.669 1.141-4.12 0.003-1.731-0.56-3.416-1.6-4.8h8.867c0.477 1.515 0.733 3.128 0.733 4.8 0 8.837-7.163 16-16 16zM20.115 18.472c-0.866 1.443-2.43 2.33-4.115 2.33-1.714 0-3.301-0.917-4.157-2.402l-0.046-0.080c-0.392-0.71-0.597-1.509-0.597-2.318 0-2.634 2.166-4.8 4.8-4.8 2.632 0 4.8 2.166 4.8 4.8 0 0.842-0.222 1.669-0.643 2.398l-0.042 0.072zM4.211 5.182c3.026-3.306 7.307-5.187 11.789-5.182 5.71-0.002 11.005 3.054 13.859 8h-13.859c-3.197 0-6.101 1.915-7.358 4.856l-4.43-7.674z"></path>
</symbol>
<symbol id="icon-edge" viewBox="0 0 29 32">
<path d="M28.23 10.539c-0.272-1.138-0.706-2.317-1.238-3.234-1.234-2.126-2.342-3.579-5.083-5.312s-5.787-1.992-7.237-1.992c-3.864 0-6.738 1.376-8.84 3.019-5.282 4.133-5.832 11.381-5.832 11.381s1.954-3.272 5.664-5.642c2.245-1.432 5.442-2.358 8.045-2.358 6.907 0 7.091 6.4 7.091 6.4h-11.2c0-3.2 1.6-4.8 1.6-4.8s-8 3.2-8 11.27c0 0.779-0.005 2.195 0.397 3.653 0.371 1.349 1.12 2.728 1.811 3.765 1.954 2.931 4.872 4.182 6.266 4.646 1.594 0.531 3.246 0.666 4.816 0.666 4.352 0 7.803-1.418 9.11-2.040v-6.675c-1.213 0.726-4.286 2.315-8 2.315-8 0-8-6.4-8-6.4h19.2v-3.984c0 0-0.062-2.549-0.57-4.678z"></path>
</symbol>
<symbol id="icon-firefox" viewBox="0 0 32 32">
<path d="M16 0.001c8.837 0 16 7.163 16 16s-7.163 16-16 16c-8.837 0-16-7.163-16-16 0-2.342 0.502-4.566 1.408-6.57 0.746-1.502 1.973-2.998 2.96-3.51-1.045 2.053-1.557 4.064-1.664 5.413 0.726-2.4 2.104-4.411 4.032-5.83 3.306-2.43 7.757-2.539 9.53-0.992-3.29 1.131-6.874 5.677-6.085 11.002 0.128 0.88 0.392 1.734 0.782 2.531-0.614-1.616-0.669-3.893 0.323-5.373 1.107-1.648 2.685-1.997 3.53-1.818-0.333-0.070-1.069 1.338-1.178 1.586-0.277 0.63-0.414 1.312-0.402 2 0.024 1.437 0.618 2.806 1.648 3.808 3.075 2.994 8.037 1.816 10.259-1.603 1.525-2.354 1.71-6.349-0.248-9.523-0.488-0.773-1.072-1.482-1.734-2.112-2.96-2.826-7.168-4.112-11.171-3.528-1.77 0.283-3.275 0.794-4.518 1.53 1.736-1.733 5.184-3.010 8.528-3.010z"></path>
</symbol>
<symbol id="icon-ie11" viewBox="0 0 32 32">
<path d="M11.379 29.859c-4.39 2.424-8.181 2.926-10.275 0.797-2.15-2.18-1.005-7.891 2.101-13.62 1.578-2.915 3.528-5.604 5.798-7.998 0.299-0.304 1.8-1.828 1.899-1.828 0 0-0.8 0.509-0.899 0.509-3.12 1.781-5.861 5.010-6.459 5.734 1.558-7.066 8.046-11.949 15.149-11.401 4.952-2.281 9.558-2.808 11.507-0.83 1.8 1.827 1.699 4.872 0.2 8.527-0.016 0.034-0.029 0.070-0.043 0.104 1.083 2.097 1.646 4.429 1.643 6.798 0 0.618-0.037 1.225-0.11 1.822h-1.286c-0.075 0.003-0.152 0.005-0.227 0.005h-18.874v0.304c0.099 3.248 2.899 6.090 6.299 6.090 2.4 0 4.699-1.319 5.699-3.248h7.648c-2.056 5.791-7.494 9.672-13.549 9.672-2.154 0-4.278-0.491-6.221-1.436zM10.408 29.337c-2.946-1.729-5.197-4.462-6.355-7.714-1.858 3.712-2.336 6.816-0.75 8.426 1.301 1.321 3.901 1.015 7.101-0.709l0.005-0.003zM29.875 8.993c0.008-0.018 0.016-0.037 0.024-0.055 1.2-2.638 1.301-4.87 0.2-6.191-1.39-1.412-4.064-1.22-7.235 0.273 2.91 1.166 5.373 3.263 7.011 5.973zM24.101 14.623v-0.101c-0.2-3.351-2.8-5.888-6-5.888-3.4 0-6.298 2.741-6.498 5.888v0.101h12.498z"></path>
</symbol>
<symbol id="icon-ios" viewBox="0 0 26 32">
<path d="M14.063 10.010c-1.219 0-3.105-1.386-5.092-1.336-2.621 0.033-5.025 1.519-6.378 3.873-2.721 4.725-0.701 11.704 1.953 15.544 1.302 1.87 2.838 3.974 4.875 3.907 1.953-0.083 2.688-1.269 5.059-1.269 2.354 0 3.022 1.269 5.092 1.219 2.104-0.033 3.439-1.903 4.725-3.79 1.486-2.17 2.104-4.274 2.137-4.391-0.050-0.017-4.090-1.569-4.14-6.244-0.033-3.907 3.189-5.777 3.339-5.86-1.837-2.688-4.658-2.989-5.643-3.055-2.571-0.2-4.725 1.402-5.927 1.402zM18.404 6.070c1.085-1.302 1.803-3.122 1.603-4.925-1.553 0.067-3.423 1.035-4.541 2.337-1.002 1.152-1.87 3.005-1.636 4.775 1.72 0.134 3.489-0.885 4.575-2.187z"></path>
</symbol>
<symbol id="icon-opera" viewBox="0 0 32 32">
<path d="M10.736 6.983c-1.773 2.088-2.917 5.178-2.997 8.64v0.752c0.082 3.464 1.226 6.549 2.995 8.64 2.294 2.979 5.706 4.87 9.52 4.87 2.283-0.005 4.514-0.688 6.408-1.962-3.122 2.806-7.23 4.264-11.422 4.056-8.482-0.402-15.242-7.49-15.24-15.981 0-8.838 7.165-16 16-16h0.059c3.914 0.011 7.69 1.461 10.605 4.074-1.898-1.272-4.13-1.955-6.413-1.962-3.811 0-7.222 1.893-9.52 4.872h0.005zM32 15.999c0.006 4.552-1.938 8.896-5.336 11.926-4.104 2-7.928 0.602-9.195-0.272 4.032-0.886 7.077-5.76 7.077-11.654 0-5.896-3.045-10.768-7.077-11.653 1.266-0.872 5.091-2.272 9.195-0.274 3.398 3.029 5.342 7.374 5.336 11.926z"></path>
</symbol>
<symbol id="icon-pointer" viewBox="0 0 18 32">
<path fill="#fff" style="fill: var(--color1, #fff)" d="M18.287-0h-18.286v25.6l9.143 6.4 9.143-6.4v-25.6z"></path>
</symbol>
<symbol id="icon-safari" viewBox="0 0 32 32">
<path d="M23.52 7.68l-9.782 6.058-6.058 9.782-0.166-0.166-2.264 2.262 1.133 1.133 2.262-2.264-0.165-0.165 9.782-6.056 6.058-9.784 0.166 0.166 2.264-2.262-1.133-1.133-2.262 2.264 0.165 0.165zM16 32c-8.837 0-16-7.163-16-16s7.163-16 16-16c8.837 0 16 7.163 16 16s-7.163 16-16 16zM15.2 1.6v3.2h1.6v-3.2h-1.6zM15.2 27.2v3.2h1.6v-3.2h-1.6zM9.75 3.002l1.224 2.957 1.478-0.611-1.224-2.957-1.478 0.611zM19.547 26.653l1.224 2.957 1.478-0.611-1.224-2.957-1.478 0.611zM20.771 2.39l-1.224 2.957 1.478 0.611 1.224-2.957-1.478-0.611zM10.976 26.042l-1.224 2.957 1.478 0.611 1.224-2.957-1.478-0.611zM30.4 15.2h-3.2v1.6h3.2v-1.6zM4.8 15.2h-3.2v1.6h3.2v-1.6zM29.533 20.984l-2.936-1.27-0.635 1.469 2.936 1.27 0.635-1.469zM6.038 10.818l-2.934-1.27-0.635 1.469 2.936 1.27 0.635-1.469h-0.002zM28.998 9.75l-2.957 1.224 0.611 1.478 2.957-1.224-0.611-1.478zM5.347 19.547l-2.957 1.224 0.611 1.478 2.957-1.224-0.611-1.478zM26.749 25.616l-2.264-2.262-1.131 1.131 2.262 2.264 1.133-1.133zM8.646 7.515l-2.262-2.264-1.133 1.133 2.264 2.262 1.131-1.131zM14.899 14.899l5.778-3.576-3.576 5.776-2.202-2.2z"></path>
</symbol>
<symbol id="icon-settings" viewBox="0 0 34 32">
<path fill="#fff" style="fill: var(--color1, #fff)" d="M18.001 22.857h-16.288c-0.948 0-1.712 0.763-1.712 1.714s0.766 1.714 1.712 1.714h16.288v1.714c0 1.894 1.533 3.429 3.425 3.429h3.435c1.886 0 3.425-1.534 3.425-3.429v-1.714h4.288c0.948 0 1.712-0.763 1.712-1.714s-0.766-1.714-1.712-1.714h-4.288v-1.714c0-1.894-1.533-3.429-3.425-3.429h-3.435c-1.885 0-3.425 1.534-3.425 3.429v1.714zM6.001 5.714h-4.288c-0.948 0-1.712 0.763-1.712 1.714s0.766 1.714 1.712 1.714h4.288v1.714c0 1.894 1.533 3.429 3.425 3.429h3.435c1.886 0 3.425-1.534 3.425-3.429v-1.714h16.288c0.948 0 1.712-0.763 1.712-1.714s-0.766-1.714-1.712-1.714h-16.288v-1.714c0-1.894-1.533-3.429-3.425-3.429h-3.435c-1.885 0-3.425 1.534-3.425 3.429v1.714zM9.43 4h3.429v6.857h-3.429v-6.857zM21.43 21.143h3.429v6.857h-3.429v-6.857z"></path>
</symbol>
<symbol id="icon-zoom" viewBox="0 0 34 32">
<path fill="#fff" style="fill: var(--color1, #fff)" d="M23.458 20.096c1.608-2.102 2.563-4.738 2.563-7.59 0-6.906-5.601-12.511-12.51-12.511s-12.51 5.605-12.51 12.511c0 6.906 5.601 12.511 12.51 12.511 2.853 0 5.484-0.951 7.588-2.561l9.056 9.050c0.65 0.651 1.702 0.651 2.354 0 0.656-0.659 0.654-1.71 0.005-2.352l-9.055-9.058zM13.511 21.681c-5.067 0-9.174-4.104-9.174-9.175 0-5.063 4.108-9.175 9.174-9.175s9.174 4.112 9.174 9.175c0 5.071-4.108 9.175-9.174 9.175z"></path>
</symbol>
<symbol id="icon-win7" viewBox="0 0 32 32">
<path d="M29.048 16.079c-0.007 0.003-0.014 0.007-0.018 0.007 0 0.005 0 0.012 0 0.016-2.072 1.070-3.969 1.495-5.674 1.495-2.581 0-4.722-0.975-6.367-2.179-0.010-0.007-0.023-0.016-0.031-0.025l2.992-11.336c0.946 0.807 3.086 2.317 6.329 2.317 1.633 0 3.541-0.382 5.72-1.424l-2.951 11.129zM9.383 11.67c-0.027 0-0.053 0-0.081 0-1.548 0-3.39 0.449-5.662 1.464l2.918-11.216c2.211-0.987 4.010-1.385 5.51-1.417 0.011 0 0.022 0 0.034 0 0.882 0 1.679 0.115 2.384 0.298 1.476 0.412 3.598 1.803 3.598 1.803v0.008c-0.608 2.28-2.408 9.036-3.015 11.286-1.584-1.149-3.286-2.199-5.686-2.226zM8.255 14.403c0.192-0.018 0.383-0.024 0.574-0.024 1.684 0 3.221 0.645 4.324 1.264 0.472 0.278 0.918 0.581 1.361 0.882-0.392 1.471-2.458 9.191-3.066 11.448-1.639-1.194-3.376-2.254-5.881-2.254-1.521 0-3.329 0.395-5.566 1.383l2.962-11.242c0.337-0.15 0.666-0.288 0.985-0.414 1.080-0.416 2.618-0.888 4.307-1.043zM22.688 20.225c1.572 0 3.433-0.318 5.592-1.165l-2.846 10.89c-2.454 1.108-4.416 1.549-6.057 1.549-2.593 0-6.049-2.333-6.045-2.33l2.953-11.224c0.899 0.785 2.98 2.28 6.403 2.28z"></path>
</symbol>
</defs>
</svg>
